<svg width="72" height="37" viewBox="0 0 72 37" fill="none" xmlns="http://www.w3.org/2000/svg">
<g clip-path="url(#clip0_19_2236)">
<path d="M3.69231 0H68.3077C70.347 0 72 1.32527 72 2.96V34.04C72 35.6748 70.347 37 68.3077 37H3.69231C1.65314 37 0 35.6748 0 34.04V2.96C0 1.32527 1.65314 0 3.69231 0Z" fill="#0E4595"/>
<path d="M41.4468 18.5C41.4468 25.8366 34.028 31.783 24.8766 31.783C15.7252 31.783 8.30737 25.8363 8.30737 18.5C8.30737 11.1642 15.7254 5.21704 24.8766 5.21704C34.0277 5.21704 41.4468 11.1644 41.4468 18.5Z" fill="#D9222A"/>
<path d="M47.122 5.21667C42.8408 5.21667 38.9396 6.51878 35.9989 8.65516C35.3998 9.09094 34.8406 9.5607 34.3258 10.0609H37.6735C38.1319 10.5076 38.5537 10.9776 38.9367 11.4678H33.0627C32.7094 11.9208 32.3907 12.3905 32.1082 12.8744H39.8908C40.1579 13.3321 40.3921 13.8016 40.5923 14.2807H31.4066C31.2136 14.7421 31.0529 15.2117 30.925 15.6874H41.0734C41.3216 16.6116 41.4467 17.5545 41.4464 18.5C41.4464 19.9751 41.146 21.3943 40.5922 22.7195H31.4064C31.6062 23.1989 31.8403 23.6685 32.1075 24.1262H39.8906C39.6078 24.6102 39.2888 25.08 38.9355 25.5332H33.0624C33.4459 26.0237 33.8683 26.4936 34.3257 26.9389H37.6726C37.1584 27.44 36.599 27.9102 35.999 28.3457C38.9399 30.4819 42.8407 31.7833 47.1221 31.7833C56.2733 31.7833 63.6923 25.8366 63.6923 18.5003C63.6923 11.1647 56.2734 5.21667 47.122 5.21667Z" fill="#EE9F2D"/>
<path d="M21.0085 19.9545C20.8198 19.937 20.7367 19.9322 20.607 19.9322C19.5874 19.9322 19.0713 20.2126 19.0713 20.7661C19.0713 21.1073 19.3233 21.3245 19.7162 21.3245C20.449 21.3245 20.977 20.765 21.0085 19.9545ZM22.3166 22.3962H20.8262L20.8605 21.8282C20.4058 22.2772 19.7993 22.4905 18.9751 22.4905C18.0001 22.4905 17.3316 21.88 17.3316 20.9936C17.3316 19.6598 18.4943 18.8816 20.4901 18.8816C20.6939 18.8816 20.9554 18.8964 21.2231 18.9237C21.279 18.7431 21.2936 18.6657 21.2936 18.5685C21.2936 18.2053 20.9801 18.0699 20.1397 18.0699C19.2598 18.0619 18.5339 18.2379 18.2359 18.3166C18.2547 18.2256 18.4851 17.0839 18.4851 17.0839C19.3816 16.8733 19.9728 16.794 20.6382 16.794C22.1828 16.794 23.0009 17.3499 22.9994 18.4007C23.0024 18.6823 22.9443 19.0297 22.8536 19.4864C22.6974 20.2805 22.3625 21.9815 22.3166 22.3962ZM16.579 22.3962H14.7801L15.8105 17.2164L13.5097 22.3962H12.2839L12.1325 17.246L11.0494 22.3962H9.36548L10.7721 15.6582H13.3585L13.5154 19.4297L15.0932 15.6582H17.9701L16.579 22.3962ZM49.3463 19.9545C49.1583 19.937 49.0748 19.9322 48.9455 19.9322C47.9264 19.9322 47.4101 20.2126 47.4101 20.7661C47.4101 21.1073 47.6617 21.3245 48.0547 21.3245C48.7875 21.3245 49.316 20.765 49.3463 19.9545ZM50.6555 22.3962H49.1652L49.1989 21.8282C48.7443 22.2772 48.1374 22.4905 47.314 22.4905C46.3387 22.4905 45.6709 21.88 45.6709 20.9936C45.6709 19.6598 46.8328 18.8816 48.8289 18.8816C49.0328 18.8816 49.2939 18.8964 49.5613 18.9237C49.6171 18.7431 49.6317 18.6657 49.6317 18.5685C49.6317 18.2053 49.3186 18.0699 48.4783 18.0699C47.5983 18.0619 46.8732 18.2379 46.574 18.3166C46.5929 18.2256 46.824 17.0839 46.824 17.0839C47.7206 16.8733 48.3114 16.794 48.9759 16.794C50.5212 16.794 51.3393 17.3499 51.3379 18.4007C51.3408 18.6823 51.2828 19.0297 51.192 19.4864C51.0368 20.2805 50.7009 21.9815 50.6555 22.3962ZM30.3118 22.313C29.8195 22.4373 29.4357 22.4905 29.0195 22.4905C28.0999 22.4905 27.598 22.0668 27.598 21.2867C27.5849 21.0448 27.7303 20.4077 27.8445 19.8262C27.9483 19.3143 28.6245 16.087 28.6245 16.087H30.4125L30.2037 16.9164H31.2837L31.0398 18.2334H29.9559C29.7482 19.2755 29.4525 20.5736 29.449 20.7457C29.449 21.0281 29.6371 21.1514 30.0647 21.1514C30.2697 21.1514 30.4285 21.1347 30.5498 21.0996L30.3118 22.313ZM35.7941 22.2686C35.1799 22.419 34.5872 22.4918 33.9591 22.4906C31.9576 22.489 30.9141 21.651 30.9141 20.0462C30.9141 18.173 32.2415 16.7941 34.0434 16.7941C35.5175 16.7941 36.4591 17.5662 36.4591 18.777C36.4591 19.1788 36.3945 19.571 36.2387 20.1247H32.678C32.5576 20.9196 33.1921 21.2508 34.2321 21.2508C34.8723 21.2508 35.4495 21.145 36.0914 20.9057L35.7941 22.2686ZM34.7891 19.02C34.799 18.9058 34.9787 18.0419 33.9572 18.0419C33.3875 18.0419 32.9803 18.39 32.8144 19.02H34.7891ZM23.3965 18.6487C23.3965 19.3419 23.8157 19.8198 24.7665 20.1787C25.4949 20.4532 25.6077 20.5346 25.6077 20.7833C25.6077 21.125 25.2864 21.2791 24.5746 21.2791C24.0381 21.2791 23.5389 21.212 22.963 21.063C22.963 21.063 22.7265 22.2707 22.7157 22.3285C23.1246 22.4 23.4892 22.4662 24.5877 22.4906C26.4857 22.4906 27.3622 21.9112 27.3622 20.6591C27.3622 19.9061 26.9953 19.4643 26.0942 19.1322C25.34 18.8547 25.2534 18.7927 25.2534 18.5368C25.2534 18.2405 25.5523 18.0894 26.1338 18.0894C26.4869 18.0894 26.9692 18.1196 27.4261 18.1718L27.6823 16.9008C27.2165 16.8416 26.5103 16.7941 26.0992 16.7941C24.0869 16.7941 23.3903 17.6368 23.3965 18.6487ZM44.5433 16.9381C45.0429 16.9381 45.5087 17.0432 46.1506 17.3022L46.4448 15.8398C46.1814 15.7569 45.2537 15.27 44.468 15.27C43.2641 15.27 42.2465 15.7488 41.5307 16.5391C40.4867 16.2619 40.0576 16.8222 39.5314 17.3803L39.0642 17.4675C39.0995 17.2838 39.1316 17.1012 39.1208 16.9165H37.4688C37.2431 18.6124 36.8431 20.3301 36.53 22.0281L36.4484 22.3963H38.248C38.5484 20.8317 38.713 19.8299 38.813 19.152L39.4907 18.8498C39.5919 18.5479 39.9088 18.4459 40.5445 18.4582C40.459 18.8288 40.4163 19.2048 40.4169 19.5818C40.4169 21.3744 41.6234 22.4906 43.5599 22.4906C44.0588 22.4906 44.4869 22.4379 45.1496 22.294L45.4663 20.7577C44.87 20.993 44.3806 21.1037 43.9376 21.1037C42.8919 21.1037 42.2591 20.4849 42.2591 19.4621C42.259 17.9784 43.2002 16.9381 44.5433 16.9381Z" fill="#323232"/>
<path d="M17.0963 21.9958H15.2971L16.3282 16.8167L14.0274 21.9958H12.8014L12.6498 16.8463L11.5668 21.9958H9.88281L11.2894 15.2587H13.8759L13.9486 19.4295L15.6936 15.2587H18.4875L17.0963 21.9958Z" fill="white"/>
<path d="M59.7711 15.6583L59.3724 17.6051C58.8804 17.0862 58.3521 16.7107 57.6544 16.7107C56.7467 16.7107 55.9205 17.2623 55.3798 18.0741C54.6267 17.9489 53.8477 17.7365 53.8477 17.7365L53.8474 17.7414C53.9081 17.2876 53.9323 17.0107 53.9269 16.9166H52.2746C52.0497 18.6125 51.6497 20.3302 51.3371 22.0282L51.2546 22.3964H53.0539C53.2969 21.1312 53.4831 20.0807 53.62 19.2476C54.2347 18.8024 54.5424 18.4139 55.1635 18.4398C54.8885 18.973 54.7273 19.5871 54.7273 20.217C54.7273 21.587 55.592 22.4907 56.8997 22.4907C57.5589 22.4907 58.0646 22.3085 58.5581 21.8861L58.4739 22.3955H60.1754L61.5455 15.6583H59.7711ZM57.5216 21.13C56.9092 21.13 56.6001 20.7668 56.6001 20.0499C56.6001 18.9729 57.1789 18.2091 57.995 18.2091C58.613 18.2091 58.9477 18.5868 58.9477 19.2827C58.9477 20.3691 58.3597 21.13 57.5216 21.13Z" fill="#323232"/>
<path d="M21.5255 19.5551C21.337 19.5376 21.2536 19.5329 21.1243 19.5329C20.1047 19.5329 19.5889 19.8132 19.5889 20.3667C19.5889 20.7073 19.8409 20.9251 20.2332 20.9251C20.9666 20.9251 21.4947 20.3658 21.5255 19.5551ZM22.8343 21.9959H21.344L21.3778 21.4288C20.9236 21.8768 20.3163 22.0911 19.4928 22.0911C18.5174 22.0911 17.8494 21.4806 17.8494 20.5942C17.8494 19.2598 19.0116 18.4821 21.0078 18.4821C21.2117 18.4821 21.4732 18.4969 21.7405 18.5244C21.7963 18.3436 21.8108 18.2663 21.8108 18.1686C21.8108 17.8054 21.4978 17.6705 20.6574 17.6705C19.777 17.6625 19.0517 17.8387 18.7531 17.9164C18.772 17.8256 19.0024 16.6852 19.0024 16.6852C19.8986 16.4737 20.4905 16.3943 21.1551 16.3943C22.7001 16.3943 23.5185 16.9507 23.5171 18.0005C23.5197 18.2832 23.4612 18.6304 23.3708 19.0865C23.2151 19.8801 22.8798 21.5821 22.8343 21.9959ZM46.9617 15.4401L46.6671 16.9029C46.0256 16.6442 45.5594 16.5387 45.0603 16.5387C43.7171 16.5387 42.7757 17.579 42.7757 19.0626C42.7757 20.0854 43.4086 20.704 44.4541 20.704C44.8972 20.704 45.386 20.5936 45.9822 20.3579L45.6665 21.8934C45.0033 22.0384 44.5758 22.0911 44.0764 22.0911C42.1401 22.0911 40.9333 20.9749 40.9333 19.1823C40.9333 16.7736 42.6003 15.0901 44.9845 15.0901C45.7698 15.0902 46.6979 15.3572 46.9617 15.4401ZM49.8641 19.5551C49.6757 19.5376 49.5926 19.5329 49.4629 19.5329C48.4436 19.5329 47.9275 19.8132 47.9275 20.3667C47.9275 20.7073 48.1794 20.9251 48.5721 20.9251C49.3048 20.9251 49.8332 20.3658 49.8641 19.5551ZM51.1729 21.9959H49.6821L49.7163 21.4288C49.2618 21.8768 48.6547 22.0911 47.8314 22.0911C46.8563 22.0911 46.1879 21.4806 46.1879 20.5942C46.1879 19.2598 47.3505 18.4821 49.346 18.4821C49.5502 18.4821 49.8114 18.4969 50.079 18.5244C50.1344 18.3436 50.1494 18.2663 50.1494 18.1686C50.1494 17.8054 49.8363 17.6705 48.9959 17.6705C48.116 17.6625 47.3901 17.8387 47.0917 17.9164C47.1105 17.8256 47.3413 16.6852 47.3413 16.6852C48.2375 16.4737 48.8289 16.3943 49.4936 16.3943C51.039 16.3943 51.857 16.9507 51.8551 18.0005C51.8582 18.2832 51.8001 18.6304 51.7093 19.0865C51.554 19.8801 51.2179 21.5821 51.1729 21.9959ZM30.8292 21.9129C30.3365 22.0372 29.9527 22.0911 29.5369 22.0911C28.6172 22.0911 28.1154 21.6674 28.1154 20.8875C28.1026 20.6447 28.248 20.0083 28.3623 19.4269C28.4657 18.9143 29.1419 15.6874 29.1419 15.6874H30.9296L30.7211 16.5171H31.6388L31.3946 17.8334H30.4738C30.2661 18.8761 29.9696 20.1732 29.9665 20.3456C29.9665 20.6291 30.155 20.7514 30.5823 20.7514C30.7872 20.7514 30.9458 20.7353 31.0673 20.7002L30.8292 21.9129ZM36.3116 21.8691C35.6977 22.0196 35.1042 22.0921 34.4765 22.0911C32.4749 22.0896 31.4315 21.2515 31.4315 19.6467C31.4315 17.773 32.7589 16.3944 34.5607 16.3944C36.0349 16.3944 36.9764 17.1662 36.9764 18.3776C36.9764 18.7797 36.9118 19.1719 36.7566 19.7253H33.1958C33.0752 20.5201 33.7099 20.8516 34.75 20.8516C35.3897 20.8516 35.9673 20.7455 36.6088 20.5056L36.3116 21.8691ZM35.3061 18.6197C35.3169 18.5059 35.4962 17.6416 34.4742 17.6416C33.905 17.6416 33.4976 17.9907 33.3319 18.6197H35.3061ZM23.9135 18.2494C23.9135 18.9424 24.3328 19.4198 25.2836 19.7793C26.012 20.0537 26.1247 20.1354 26.1247 20.3839C26.1247 20.7256 25.8031 20.8797 25.092 20.8797C24.5551 20.8797 24.0559 20.8125 23.4797 20.6636C23.4797 20.6636 23.2439 21.8713 23.2332 21.929C23.6412 22.0006 24.0062 22.0659 25.1047 22.0911C27.0031 22.0911 27.8793 21.5118 27.8793 20.2599C27.8793 19.5066 27.5128 19.0648 26.6112 18.7328C25.8573 18.4547 25.7701 18.3937 25.7701 18.1374C25.7701 17.8414 26.0696 17.6891 26.6508 17.6891C27.0035 17.6891 27.4858 17.7202 27.9435 17.7724L28.1993 16.501C27.734 16.4418 27.0278 16.3944 26.6166 16.3944C24.6039 16.3944 23.9078 17.2365 23.9135 18.2494ZM60.6935 21.9959H58.9916L59.0763 21.4858C58.5827 21.9089 58.0771 22.0911 57.4178 22.0911C56.11 22.0911 55.2458 21.1874 55.2458 19.8175C55.2458 17.9949 56.5862 16.4584 58.1728 16.4584C58.8704 16.4584 59.3986 16.6869 59.8901 17.2055L60.2893 15.2587H62.0635L60.6935 21.9959ZM58.0401 20.7298C58.8778 20.7298 59.4663 19.9689 59.4663 18.8833C59.4663 18.1874 59.1312 17.8097 58.5132 17.8097C57.6974 17.8097 57.1179 18.5731 57.1179 19.6504C57.1178 20.3672 57.4278 20.7298 58.0401 20.7298ZM52.7931 16.5171C52.568 18.213 52.1679 19.9307 51.8551 21.6278L51.7728 21.9959H53.572C54.2155 18.6456 54.3712 17.9913 55.3801 18.0732C55.5409 17.3876 55.84 16.7869 56.0631 16.4838C55.3096 16.358 54.8888 16.6994 54.338 17.3478C54.3815 17.0675 54.4612 16.7953 54.4454 16.5171H52.7931ZM37.9851 16.5171C37.7593 18.213 37.3592 19.9307 37.0466 21.6278L36.9647 21.9959H38.7647C39.4074 18.6456 39.5628 17.9913 40.5711 18.0732C40.7326 17.3876 41.0319 16.7869 41.2542 16.4838C40.5015 16.358 40.0804 16.6994 39.53 17.3478C39.5734 17.0675 39.6523 16.7953 39.6373 16.5171H37.9851ZM61.4839 21.567C61.4839 21.3292 61.7235 21.1378 62.0189 21.1378C62.314 21.1376 62.5535 21.3292 62.5538 21.5659V21.567C62.5537 21.8038 62.3143 21.9958 62.0189 21.9959C61.7235 21.9958 61.484 21.8038 61.4839 21.567ZM62.0189 21.8929C62.2434 21.893 62.4253 21.7471 62.4253 21.5672V21.5671C62.4256 21.387 62.2436 21.241 62.0192 21.2409H62.0189C61.7941 21.241 61.612 21.387 61.6119 21.5671C61.6122 21.747 61.7943 21.8929 62.0189 21.8929ZM61.9465 21.7545H61.8368V21.3783H62.0357C62.0768 21.3783 62.1195 21.3789 62.1553 21.3971C62.1937 21.418 62.2157 21.4539 62.2157 21.4914C62.2157 21.5339 62.1845 21.5737 62.1337 21.5888L62.2206 21.7543H62.0988L62.0268 21.6057H61.9465V21.7543V21.7545ZM61.9465 21.5414H62.0069C62.0295 21.5414 62.0542 21.5427 62.0742 21.534C62.0922 21.5248 62.1014 21.5073 62.1014 21.4906C62.1006 21.475 62.0908 21.4607 62.0749 21.4518C62.0561 21.4431 62.0249 21.4455 62.0045 21.4455H61.9464V21.5414H61.9465Z" fill="white"/>
</g>
<defs>
<clipPath id="clip0_19_2236">
<rect width="72" height="37" fill="white"/>
</clipPath>
</defs>
</svg>
