<svg width="72" height="37" viewBox="0 0 72 37" fill="none" xmlns="http://www.w3.org/2000/svg">
<g clip-path="url(#clip0_19_2232)">
<path d="M3.69231 0H68.3077C70.347 0 72 1.32527 72 2.96V34.04C72 35.6748 70.347 37 68.3077 37H3.69231C1.65314 37 0 35.6748 0 34.04V2.96C0 1.32527 1.65314 0 3.69231 0Z" fill="#0E4595"/>
<path d="M27.0646 25.806L30.1441 11.3197H35.0696L31.9879 25.806H27.0646ZM49.7824 11.632C48.8068 11.3385 47.2775 11.0236 45.3681 11.0236C40.5012 11.0236 37.0729 12.9883 37.0438 15.8042C37.0162 17.8858 39.4912 19.047 41.3594 19.7399C43.2767 20.45 43.9211 20.9028 43.912 21.5369C43.8999 22.5078 42.381 22.9515 40.9654 22.9515C38.994 22.9515 37.9467 22.7319 36.3291 22.1911L35.6943 21.9609L35.003 25.2038C36.1535 25.6081 38.2809 25.9585 40.4896 25.9766C45.6672 25.9766 49.0281 24.0344 49.0665 21.0273C49.0849 19.3794 47.7727 18.1253 44.931 17.0914C43.2095 16.4213 42.1551 15.9741 42.1663 15.2956C42.1663 14.6934 43.0587 14.0495 44.987 14.0495C46.5976 14.0295 47.7645 14.3111 48.6735 14.6045L49.1149 14.7717L49.7824 11.632ZM62.4572 11.3195H58.6512C57.4721 11.3195 56.5898 11.5775 56.072 12.5208L48.7572 25.7964H53.9293C53.9293 25.7964 54.7748 24.0113 54.9661 23.6195C55.5315 23.6195 60.5558 23.6257 61.2742 23.6257C61.4215 24.1328 61.8733 25.7964 61.8733 25.7964H66.4438L62.4572 11.319V11.3195ZM56.4186 20.6738C56.8259 19.8392 58.3811 16.6243 58.3811 16.6243C58.3519 16.663 58.7853 15.7856 59.0341 15.2417L59.3668 16.4908C59.3668 16.4908 60.3101 19.9487 60.5072 20.6738H56.4186ZM22.8832 11.3195L18.0611 21.1985L17.5472 19.1909C16.6495 16.8767 13.8526 14.3694 10.7258 13.1141L15.135 25.7829L20.3463 25.7782L28.1006 11.3193H22.8832" fill="white"/>
<path d="M13.562 11.319H5.61975L5.55688 11.6204C11.7358 12.8195 15.8243 15.7173 17.5218 19.1988L15.7947 12.5417C15.4966 11.6245 14.6319 11.3508 13.5622 11.3187" fill="#F2AE14"/>
</g>
<defs>
<clipPath id="clip0_19_2232">
<rect width="72" height="37" fill="white"/>
</clipPath>
</defs>
</svg>
